# xmcd
#
# Track frame offsets:
#	150
#	14443
#	30368
#	46326
#	69196
#
# Disc length: 1140 seconds
#
# Revision: 1
# Processed by: cddbd v1.5.2PL0 Copyright (c) Steve Scherf et al.
# Submitted via: audiograbber 1.83.01
#
DISCID=31047205
DTITLE=Faithless Town - Faithless Town
DYEAR=2008
DGENRE=Country Rock
TTITLE0=Faithless Town
TTITLE1=Your Love
TTITLE2=Let Me Go
TTITLE3=Stay
TTITLE4=You've Changed
EXTD=
EXTT0=
EXTT1=
EXTT2=
EXTT3=
EXTT4=
PLAYORDER=
